<svg width="17" height="16" viewBox="0 0 17 16" fill="none" xmlns="http://www.w3.org/2000/svg">
<path d="M6.58472 12.4975C9.85245 12.4975 12.5015 9.84853 12.5015 6.5808C12.5015 3.31307 9.85245 0.664062 6.58472 0.664062C3.31699 0.664062 0.667969 3.31307 0.667969 6.5808C0.667969 9.84853 3.31699 12.4975 6.58472 12.4975Z" stroke="#151515" stroke-width="1.33333" stroke-miterlimit="10"/>
<path d="M15.2098 15.2815C15.4702 15.5419 15.8923 15.5419 16.1526 15.2815C16.413 15.0212 16.413 14.5991 16.1526 14.3387L15.6812 14.8101L15.2098 15.2815ZM10.9258 10.0547L10.4544 10.5261L15.2098 15.2815L15.6812 14.8101L16.1526 14.3387L11.3972 9.58328L10.9258 10.0547Z" fill="#151515"/>
</svg>




