<svg width="16" height="16" viewBox="0 0 16 16" fill="none" xmlns="http://www.w3.org/2000/svg">
<path d="M14.4795 4.21953V5.83953H1.51953V4.21953C1.51953 3.32637 2.24637 2.59953 3.13953 2.59953H4.75953V1.51953H5.83953V2.59953H10.1595V1.51953H11.2395V2.59953H12.8595C13.7527 2.59953 14.4795 3.32637 14.4795 4.21953ZM14.4795 10.6995C14.4795 12.7839 12.7834 14.4795 10.6995 14.4795C8.61567 14.4795 6.91953 12.7839 6.91953 10.6995C6.91953 8.61513 8.61567 6.91953 10.6995 6.91953C12.7834 6.91953 14.4795 8.61513 14.4795 10.6995ZM12.1613 11.3978L11.2395 10.476V9.07953H10.1595V10.9231L11.3978 12.1613L12.1613 11.3978ZM5.83953 10.6995C5.83953 9.17187 6.54585 7.81053 7.64799 6.91953H1.51953V14.4795H7.64799C6.54585 13.5885 5.83953 12.2272 5.83953 10.6995Z" fill="#94B9E3"/>
</svg>
