<svg width="16" height="16" viewBox="0 0 16 16" fill="none" xmlns="http://www.w3.org/2000/svg">
<path d="M8.00104 10.5C7.80104 10.5 7.63438 10.4667 7.43437 10.4L2.73438 8.5V12.9C2.73438 13.0667 2.83437 13.2333 2.96771 13.3333C3.13437 13.4333 3.30104 13.4333 3.46771 13.3333C4.76771 12.6333 6.33438 12.2667 8.00104 12.2667C9.66771 12.2667 11.2344 12.6333 12.5344 13.3333C12.601 13.3667 12.701 13.4 12.7677 13.4C12.8677 13.4 12.9344 13.3667 13.0344 13.3333C13.201 13.2333 13.2677 13.0667 13.2677 12.9V8.5L8.56771 10.4C8.36771 10.4667 8.20104 10.5 8.00104 10.5Z" fill="#94B9E3"/>
<path d="M15.5326 5.59896L8.19922 2.66563C8.06589 2.63229 7.93255 2.63229 7.83255 2.66563L0.499219 5.59896C0.299219 5.66562 0.199219 5.86562 0.199219 6.06562C0.199219 6.26562 0.332552 6.46562 0.499219 6.53229L7.83255 9.46562C7.89922 9.49896 7.96589 9.49896 8.03255 9.49896C8.09922 9.49896 8.16589 9.49896 8.23255 9.46562L14.8659 6.79896V12.299H15.8659V6.06562C15.8326 5.83229 15.6992 5.66562 15.5326 5.59896Z" fill="#94B9E3"/>
</svg>
