<svg width="16" height="16" viewBox="0 0 16 16" fill="none" xmlns="http://www.w3.org/2000/svg">
<path d="M8.0026 0C6.23509 0.00194106 4.54052 0.704943 3.2907 1.95477C2.04088 3.20459 1.33788 4.89915 1.33594 6.66667C1.33594 10.188 6.93594 15.022 7.57194 15.562L8.0026 15.926L8.43327 15.562C9.06927 15.022 14.6693 10.188 14.6693 6.66667C14.6673 4.89915 13.9643 3.20459 12.7145 1.95477C11.4647 0.704943 9.77012 0.00194106 8.0026 0ZM8.0026 10C7.34333 10 6.69887 9.8045 6.1507 9.43823C5.60254 9.07196 5.1753 8.55136 4.92301 7.94228C4.67071 7.33319 4.6047 6.66297 4.73332 6.01637C4.86194 5.36976 5.17941 4.77582 5.64558 4.30964C6.11176 3.84347 6.7057 3.526 7.3523 3.39738C7.99891 3.26877 8.66913 3.33478 9.27822 3.58707C9.8873 3.83936 10.4079 4.2666 10.7742 4.81477C11.1404 5.36293 11.3359 6.0074 11.3359 6.66667C11.3349 7.5504 10.9833 8.39763 10.3585 9.02252C9.73357 9.64741 8.88633 9.99894 8.0026 10Z" fill="#94B9E3"/>
<path d="M8 8.66406C9.10457 8.66406 10 7.76863 10 6.66406C10 5.55949 9.10457 4.66406 8 4.66406C6.89543 4.66406 6 5.55949 6 6.66406C6 7.76863 6.89543 8.66406 8 8.66406Z" fill="#94B9E3"/>
</svg>
