<svg width="20" height="20" viewBox="0 0 20 20" fill="none" xmlns="http://www.w3.org/2000/svg">
<g clip-path="url(#clip0_55_93726)">
<path d="M16.2852 1.93164C18.0742 1.93164 19.5371 3.39453 19.5371 5.18359V13.0352C19.5369 14.818 18.08 16.2812 16.291 16.2812H11.7783L11.0098 17.6094L10.2539 18.9189C10.1124 19.1584 9.76812 19.1584 9.63281 18.9189L8.87695 17.6094L8.1084 16.2812H3.64453C1.86174 16.2812 0.398627 14.8241 0.398438 13.0352V5.17773C0.398438 3.39482 1.85548 1.9317 3.64453 1.93164H16.2852ZM14.6992 7.68848C13.7955 7.68848 13.0635 8.44469 13.0635 9.37305C13.0635 10.3014 13.7954 11.0576 14.6992 11.0576C15.0741 11.0575 15.418 10.928 15.6885 10.7129V11.1807C15.6867 11.1887 15.5839 11.6416 14.9014 11.6416V12.5088C14.9014 12.5088 15.6456 12.5946 16.3096 11.9307C16.3096 11.9307 16.6168 11.605 16.6846 11.1748V7.75586H15.6885V8.0332C15.4119 7.81809 15.068 7.68856 14.6992 7.68848ZM3.25098 11.0977H4.23438V10.7842C4.51103 11.0301 4.86171 11.1836 5.24902 11.1836C6.1281 11.1835 6.84082 10.4027 6.84082 9.4375C6.84072 8.47242 6.13418 7.68569 5.24902 7.68555C4.86788 7.68555 4.51103 7.83294 4.23438 8.08496V6.64062H3.25098V11.0977ZM10.8496 7.68555C9.87213 7.68563 9.0791 8.46644 9.0791 9.43164C9.0793 10.3967 9.87225 11.1777 10.8496 11.1777C11.827 11.1777 12.6199 10.3967 12.6201 9.43164C12.6201 8.46639 11.8333 7.68555 10.8496 7.68555ZM6.95215 6.55273V7.44434C6.96633 7.44636 7.40847 7.5127 7.49316 7.94824V11.0957H8.50684V7.92383C8.4465 7.48939 8.19112 7.16144 8.18164 7.14941C7.61101 6.47558 6.96827 6.55072 6.95215 6.55273ZM5.05176 8.55859C5.54361 8.55859 5.9375 8.94594 5.9375 9.43164C5.93745 9.9173 5.54358 10.3047 5.05176 10.3047C4.68914 10.3046 4.37546 10.0889 4.24023 9.77539C4.19731 9.67102 4.16701 9.55438 4.16699 9.43164C4.16699 9.30868 4.19105 9.19143 4.24023 9.08691C4.3755 8.77355 4.68922 8.55871 5.05176 8.55859ZM10.8496 8.59473C11.3169 8.59473 11.6982 8.97053 11.6982 9.43164C11.6981 9.89259 11.3229 10.2676 10.8496 10.2676C10.3825 10.2675 10.0012 9.89254 10.001 9.43164C10.001 8.97058 10.3824 8.59481 10.8496 8.59473ZM14.8838 8.50586C15.2339 8.50604 15.5409 8.70288 15.6885 8.98535C15.75 9.10217 15.7812 9.23193 15.7812 9.36719C15.7812 9.50235 15.7438 9.63746 15.6885 9.74805C15.541 10.0368 15.234 10.2274 14.8838 10.2275C14.3859 10.2275 13.9855 9.84047 13.9854 9.36719C13.9854 8.89378 14.3919 8.50586 14.8838 8.50586Z" fill="#D8D8D8"/>
</g>
<defs>
<clipPath id="clip0_55_93726">
<rect width="20" height="20" fill="white"/>
</clipPath>
</defs>
</svg>




