<svg width="20" height="20" viewBox="0 0 20 20" fill="none" xmlns="http://www.w3.org/2000/svg">
<path d="M2.92943 1C2.57638 1.00141 2.29051 1.28728 2.28906 1.64036V18.3596C2.29047 18.7127 2.57634 18.9986 2.92943 19L13.2176 18.995C13.388 18.9963 13.5519 18.9299 13.6734 18.8104L17.5268 14.957C17.6481 14.8364 17.7163 14.6724 17.7164 14.5013V1.64036C17.7149 1.28728 17.4291 1.00141 17.076 1L2.92943 1ZM3.57481 2.28696H16.4294V13.8559H13.2176C12.8607 13.8545 12.5709 14.1442 12.5723 14.5012V17.7092L3.57481 17.7142V2.28696ZM6.75767 6.14409C5.9003 6.18523 5.96186 7.47219 6.81919 7.43105H13.2176C14.075 7.43105 14.075 6.14409 13.2176 6.14409H6.81919C6.79866 6.14313 6.77824 6.14313 6.75767 6.14409ZM6.71123 8.71676C5.91682 8.81034 5.97303 9.98061 6.77274 9.99745H13.1611C14.0904 10.0759 14.0904 8.63829 13.1611 8.71676H6.77274C6.75221 8.7158 6.7318 8.7158 6.71123 8.71676ZM6.78656 11.2832C6.43118 11.2832 6.14306 11.5713 6.14306 11.9267C6.14306 12.2821 6.43114 12.5702 6.78656 12.5702H9.99959C10.355 12.5702 10.6431 12.2821 10.6431 11.9267C10.6431 11.5713 10.355 11.2832 9.99959 11.2832H6.78656ZM13.858 15.1416H15.5216L13.858 16.804V15.1416Z" fill="#D8D8D8"/>
</svg>




