<svg width="20" height="20" viewBox="0 0 20 20" fill="none" xmlns="http://www.w3.org/2000/svg">
<path d="M9.5 11.3359L6.16602 7.96387C5.92357 7.7186 5.92606 7.32279 6.1709 7.08008C6.41631 6.83749 6.81201 6.83969 7.05469 7.08496L9.33887 9.39551L9.33887 1.45605C9.33887 1.11088 9.61869 0.831054 9.96387 0.831054C10.309 0.831098 10.5889 1.1109 10.5889 1.45605L10.5889 9.35645L12.833 7.08496C13.0757 6.83953 13.4713 6.83744 13.7168 7.08008C13.962 7.32276 13.9643 7.71846 13.7217 7.96387L10.3887 11.3359L9.94434 11.7852L9.5 11.3359Z" fill="white"/>
<path d="M3.33203 8.40625V17.5112H16.6654V8.40625" stroke="white" stroke-width="1.25" stroke-linecap="round"/>
</svg>
