<svg width="20" height="20" viewBox="0 0 20 20" fill="none" xmlns="http://www.w3.org/2000/svg">
<path d="M18.1086 5.42401H16.0713V1.7184C16.0713 1.36482 15.7847 1.07812 15.4311 1.07812H4.56601C4.21242 1.07812 3.92573 1.36478 3.92573 1.7184V5.42401H1.88848C1.06471 5.42401 0.394531 6.09423 0.394531 6.91799V13.3595C0.394531 14.1833 1.06471 14.8535 1.88848 14.8535H3.9258V18.2904C3.9258 18.644 4.21246 18.9307 4.56608 18.9307H15.431C15.7846 18.9307 16.0713 18.644 16.0713 18.2904V14.8535H18.1086C18.9324 14.8535 19.6025 14.1833 19.6025 13.3595V6.91799C19.6025 6.09426 18.9324 5.42401 18.1086 5.42401ZM5.20625 2.35868H14.7908V5.42401H5.20625V2.35868ZM14.7907 17.6501H5.20636C5.20636 17.525 5.20636 12.5666 5.20636 12.4119H14.7907C14.7907 12.5705 14.7907 17.5298 14.7907 17.6501ZM18.322 13.3595C18.322 13.4772 18.2263 13.573 18.1086 13.573H16.0713V11.7717C16.0713 11.4181 15.7846 11.1314 15.431 11.1314H4.56608C4.2125 11.1314 3.9258 11.4181 3.9258 11.7717V13.573H1.88848C1.77079 13.573 1.67505 13.4772 1.67505 13.3595V6.91803C1.67505 6.80035 1.77079 6.70461 1.88848 6.70461C2.37971 6.70461 17.6291 6.70461 18.1086 6.70461C18.2263 6.70461 18.322 6.80035 18.322 6.91803V13.3595Z" fill="#C6C6C6"/>
<path d="M15.4302 7.91016H13.8004C13.4469 7.91016 13.1602 8.19681 13.1602 8.55043C13.1602 8.90406 13.4468 9.19071 13.8004 9.19071H15.4302C15.7838 9.19071 16.0705 8.90406 16.0705 8.55043C16.0705 8.19681 15.7839 7.91016 15.4302 7.91016Z" fill="#C6C6C6"/>
</svg>
