<svg width="100%" height="8" viewBox="0 0 83 8" fill="none" xmlns="http://www.w3.org/2000/svg" preserveAspectRatio="none">
<path d="M0.00130208 3.68164C0.00130208 5.1544 1.19521 6.34831 2.66797 6.34831C4.14073 6.34831 5.33464 5.1544 5.33464 3.68164C5.33464 2.20888 4.14073 1.01497 2.66797 1.01497C1.19521 1.01497 0.00130208 2.20888 0.00130208 3.68164ZM82.0215 4.03519C82.2168 3.83993 82.2168 3.52335 82.0215 3.32809L78.8395 0.146107C78.6443 -0.0491554 78.3277 -0.0491554 78.1324 0.146107C77.9372 0.341369 77.9372 0.657951 78.1324 0.853214L80.9609 3.68164L78.1324 6.51007C77.9372 6.70533 77.9372 7.02191 78.1324 7.21717C78.3277 7.41244 78.6443 7.41244 78.8395 7.21717L82.0215 4.03519ZM2.66797 3.68164V4.18164H42.168V3.68164V3.18164H2.66797V3.68164ZM42.168 3.68164V4.18164H81.668V3.68164V3.18164H42.168V3.68164Z" fill="white" fill-opacity="0.4"/>
</svg>
