<svg width="18" height="18" viewBox="0 0 18 18" fill="none" xmlns="http://www.w3.org/2000/svg">
<path d="M9 1.64844C10.7902 1.64844 12.5071 2.3596 13.773 3.62547C15.0388 4.89134 15.75 6.60823 15.75 8.39844C15.75 11.1929 13.62 14.1209 9.45 17.2484C9.32018 17.3458 9.16228 17.3984 9 17.3984C8.83772 17.3984 8.67982 17.3458 8.55 17.2484C4.38 14.1209 2.25 11.1929 2.25 8.39844C2.25 6.60823 2.96116 4.89134 4.22703 3.62547C5.4929 2.3596 7.20979 1.64844 9 1.64844ZM9 6.14844C8.40326 6.14844 7.83097 6.38549 7.40901 6.80745C6.98705 7.2294 6.75 7.8017 6.75 8.39844C6.75 8.99517 6.98705 9.56747 7.40901 9.98943C7.83097 10.4114 8.40326 10.6484 9 10.6484C9.59674 10.6484 10.169 10.4114 10.591 9.98943C11.0129 9.56747 11.25 8.99517 11.25 8.39844C11.25 7.8017 11.0129 7.2294 10.591 6.80745C10.169 6.38549 9.59674 6.14844 9 6.14844Z" fill="#94B9E3"/>
</svg>

