<svg width="18" height="18" viewBox="0 0 18 18" fill="none" xmlns="http://www.w3.org/2000/svg">
<path d="M12.9456 9.40421C12.8016 9.27304 12.6122 9.20307 12.4175 9.20909C12.2228 9.21511 12.038 9.29665 11.9024 9.43646L10.1076 11.2822C9.67562 11.1997 8.80712 10.929 7.91312 10.0372C7.01912 9.14246 6.74837 8.27171 6.66812 7.84271L8.51237 6.04721C8.65218 5.91155 8.73372 5.72682 8.73974 5.53211C8.74576 5.3374 8.67578 5.14799 8.54462 5.00396L5.77337 1.95671C5.64215 1.81222 5.45978 1.72458 5.26498 1.7124C5.07019 1.70022 4.87832 1.76445 4.73012 1.89146L3.10262 3.28721C2.97295 3.41734 2.89556 3.59054 2.88512 3.77396C2.87387 3.96146 2.65937 8.40296 6.10337 11.8485C9.10787 14.8522 12.8714 15.072 13.9079 15.072C14.0594 15.072 14.1524 15.0675 14.1771 15.066C14.3604 15.0551 14.5333 14.9775 14.6631 14.8477L16.0581 13.2195C16.1852 13.0714 16.2496 12.8795 16.2375 12.6847C16.2255 12.49 16.138 12.3075 15.9936 12.1762L12.9456 9.40421Z" fill="#94B9E3"/>
</svg>

