<svg width="36" height="32" viewBox="0 0 36 32" fill="none" xmlns="http://www.w3.org/2000/svg">
<path d="M20.6909 7.17241C20.6909 4.96552 21.3805 3.31034 22.7598 1.93103C24.1391 0.551724 25.7943 -8.80257e-07 27.7254 -7.11441e-07C30.2081 -4.94391e-07 32.1391 0.965507 33.6564 2.89655C35.1736 4.82759 35.8633 7.03448 35.8633 9.7931C35.8633 14.4828 34.7598 18.7586 32.2771 22.7586C29.7943 26.7586 26.6219 29.7931 22.7598 32L21.1047 29.7931C23.4495 28.2759 25.5185 26.2069 27.1736 23.7241C28.8288 21.1034 29.7943 18.6207 29.9322 16.1379C30.484 14.2069 30.0702 13.3793 28.6909 13.6552C28.2771 13.7931 27.8633 13.931 27.4495 13.931L26.2081 13.931C24.6909 13.6552 23.4495 12.8276 22.346 11.7241C21.2426 10.4828 20.6909 8.96552 20.6909 7.17241ZM0.00120761 7.17241C0.00120781 4.96551 0.690859 3.31034 2.07017 1.93103C3.44948 0.551723 5.10466 -2.689e-06 7.03569 -2.52019e-06C9.51845 -2.30314e-06 11.4495 0.965505 12.9667 2.89655C14.6219 4.82758 15.3116 7.03448 15.3116 9.7931C15.3116 14.3448 14.0702 18.6207 11.5874 22.7586C9.10465 26.7586 5.93224 29.7931 2.07017 32L0.415001 29.7931C2.75983 28.2759 4.82879 26.2069 6.48397 23.7241C8.13914 21.1034 9.10466 18.6207 9.38052 16.1379C9.79431 14.3448 9.38052 13.5172 8.00121 13.6552C7.72535 13.7931 7.31155 13.931 6.89776 13.931L5.51845 13.931C4.00121 13.6552 2.75983 12.8276 1.65638 11.7241C0.552931 10.4827 0.00120746 8.96551 0.00120761 7.17241Z" fill="#E4E4E4"/>
</svg>

