<svg width="40" height="40" viewBox="0 0 40 40" fill="none" xmlns="http://www.w3.org/2000/svg">
<g opacity="0.2">
<path d="M17.6724 29.2026C17.6724 31.4095 16.9828 33.0647 15.6034 34.444C14.2241 35.8233 12.569 36.375 10.6379 36.375C8.15518 36.375 6.22414 35.4095 4.7069 33.4784C3.18965 31.5474 2.5 29.3405 2.5 26.5819C2.5 21.8922 3.60345 17.6164 6.08621 13.6164C8.56897 9.61638 11.7414 6.58189 15.6034 4.375L17.2586 6.58189C14.9138 8.09914 12.8448 10.1681 11.1897 12.6509C9.53448 15.2716 8.56897 17.7543 8.43104 20.2371C7.87931 22.1681 8.2931 22.9957 9.67242 22.7198C10.0862 22.5819 10.5 22.444 10.9138 22.444H12.1552C13.6724 22.7198 14.9138 23.5474 16.0172 24.6509C17.1207 25.8922 17.6724 27.4095 17.6724 29.2026ZM38.3621 29.2026C38.3621 31.4095 37.6724 33.0647 36.2931 34.444C34.9138 35.8233 33.2586 36.375 31.3276 36.375C28.8448 36.375 26.9138 35.4095 25.3966 33.4784C23.7414 31.5474 23.0517 29.3405 23.0517 26.5819C23.0517 22.0302 24.2931 17.7543 26.7759 13.6164C29.2586 9.61638 32.431 6.58189 36.2931 4.375L37.9483 6.58189C35.6035 8.09914 33.5345 10.1681 31.8793 12.6509C30.2241 15.2716 29.2586 17.7543 28.9828 20.2371C28.569 22.0302 28.9828 22.8578 30.3621 22.7198C30.6379 22.5819 31.0517 22.444 31.4655 22.444H32.8448C34.3621 22.7198 35.6035 23.5474 36.7069 24.6509C37.8104 25.8922 38.3621 27.4095 38.3621 29.2026Z" fill="#E4E4E4"/>
</g>
</svg>

