<svg width="48" height="48" viewBox="0 0 48 48" fill="none" xmlns="http://www.w3.org/2000/svg">
<g clip-path="url(#clip0_55_93592)">
<path d="M43.6219 16.8372L29.0872 31.3766C27.8342 28.1762 27.3396 24.7075 27.6539 21.2566C27.7056 20.6894 25.6517 20.5024 25.6 21.0695C25.2294 25.139 25.8887 29.2325 27.5085 32.9557L14.8948 45.5736C14.4921 45.9763 16.152 47.2331 16.3534 47.0317L28.9669 34.4142C32.015 35.7411 35.3116 36.4236 38.6398 36.4236C39.3719 36.4236 40.1055 36.3906 40.8384 36.3241C41.4056 36.2726 41.2195 34.2183 40.6522 34.2701C37.2057 34.5828 33.7412 34.0876 30.5452 32.8353L45.0805 18.2953C45.4832 17.8925 44.0246 16.4345 43.6219 16.8372Z" fill="#94B9E3"/>
<path d="M46.0076 16.853C45.9666 16.3494 45.5669 15.9496 45.0634 15.9087C44.9096 15.8961 41.2462 15.6111 36.508 16.3572C33.2057 16.8772 30.2079 17.7772 27.5946 19.0206C26.3672 13.6073 23.3523 8.92551 20.9709 5.88613C18.2552 2.42011 15.8146 0.332639 15.7122 0.245454C15.3271 -0.0818179 14.7616 -0.0818179 14.3765 0.245454C14.2493 0.353544 11.2259 2.94153 8.16691 7.14469C6.36434 9.62149 4.92626 12.147 3.8925 14.6511C2.58754 17.8124 1.92578 20.9495 1.92578 23.9756C1.92578 27.0017 2.58745 30.1389 3.8925 33.3001C4.92626 35.8042 6.36434 38.3298 8.16691 40.8066C11.2259 45.0098 14.2493 47.5977 14.3765 47.7058C14.3772 47.7064 14.3779 47.707 14.3786 47.7075C14.3827 47.711 14.3869 47.7144 14.391 47.7178C14.3929 47.7193 14.3946 47.7208 14.3965 47.7223C14.4009 47.7258 14.4054 47.7294 14.4099 47.7329C14.4115 47.7342 14.413 47.7354 14.4146 47.7366C14.4189 47.74 14.4233 47.7433 14.4277 47.7465C14.4297 47.7479 14.4316 47.7494 14.4335 47.7508C14.4374 47.7537 14.4413 47.7565 14.4452 47.7593C14.4476 47.7611 14.4501 47.7628 14.4526 47.7646C14.4555 47.7667 14.4584 47.7687 14.4613 47.7706C14.4649 47.7731 14.4684 47.7756 14.4721 47.7779C14.4731 47.7786 14.474 47.7793 14.4751 47.7799C14.6258 47.8799 14.7956 47.9356 14.9673 47.9484C14.9676 47.9484 14.9678 47.9484 14.9681 47.9485C14.9696 47.9486 14.9715 47.9487 14.9737 47.9488C14.9752 47.9489 14.9768 47.9491 14.9784 47.9492C15.0841 47.9568 15.7318 47.9999 16.7718 47.9999C18.3244 47.9999 20.751 47.9038 23.5505 47.4498C29.8968 46.4207 35.1158 44.0116 38.6431 40.4832C42.1717 36.9536 44.5632 31.7416 45.5594 25.4108C46.305 20.6711 46.0201 17.0066 46.0076 16.853ZM19.3766 7.19531C21.6945 10.1604 24.6491 14.7697 25.6995 20.0219C24.0928 20.9623 22.6651 22.0505 21.4401 23.2759C19.1566 25.5601 17.345 28.5562 16.0755 32.1108V3.43445C16.9799 4.35346 18.1557 5.63358 19.3766 7.19531ZM9.80505 8.39884C11.3397 6.28475 12.8872 4.57976 14.0131 3.43511V24.5177C10.4321 23.0261 7.4594 20.8147 4.9616 17.7888C6.10419 14.0616 8.06426 10.7968 9.80505 8.39884ZM3.98822 23.9757C3.98822 22.6983 4.12031 21.4452 4.35309 20.2285C7.05038 23.1574 10.229 25.2976 14.0131 26.7376V43.0226C13.9868 43.5452 13.9721 44.0279 13.9652 44.4634C10.6971 41.1207 3.98822 33.1413 3.98822 23.9757ZM43.514 25.1395C42.864 29.2358 41.2381 34.9699 37.1843 39.025C33.1289 43.0818 27.3786 44.7342 23.2688 45.406C20.1303 45.9192 17.4395 45.9552 16.0755 45.9283V43.1282C16.1389 41.851 16.2732 40.3228 16.5391 38.671C17.2023 34.5517 18.8438 28.7899 22.8986 24.7338C26.9524 20.6788 32.6845 19.0525 36.7794 18.4022C39.9442 17.8997 42.6509 17.8857 43.9933 17.9228C44.0305 19.266 44.0165 21.9736 43.514 25.1395Z" fill="white"/>
</g>
<defs>
<clipPath id="clip0_55_93592">
<rect width="48" height="48" fill="white"/>
</clipPath>
</defs>
</svg>
