<svg width="48" height="48" viewBox="0 0 48 48" fill="none" xmlns="http://www.w3.org/2000/svg">
<g clip-path="url(#clip0_55_93558)">
<path d="M47.0794 30.4917C47.0794 29.4089 46.6577 28.391 45.8921 27.6253L43.4484 25.1816L41.9899 26.6401L44.4336 29.0838C45.21 29.8601 45.21 31.1234 44.4336 31.8998C43.6573 32.6761 42.394 32.6761 41.6177 31.8998L38.5803 28.8625C38.1776 28.4597 37.5246 28.4597 37.1219 28.8625C36.7192 29.2652 36.7192 29.9182 37.1219 30.3209L42.2964 35.4955C43.0727 36.2718 43.0727 37.5351 42.2964 38.3114C41.9204 38.6875 41.4203 38.8946 40.8884 38.8946C40.3564 38.8946 39.8565 38.6875 39.4803 38.3114L34.3058 33.1369C33.903 32.7341 33.2501 32.7341 32.8473 33.1369C32.4447 33.5396 32.4447 34.1926 32.8473 34.5954L35.8847 37.6327C36.2608 38.0088 36.4679 38.5088 36.4679 39.0407C36.4679 39.5726 36.2608 40.0726 35.8847 40.4487C35.1083 41.2252 33.8451 41.2252 33.0687 40.4487L30.0314 37.4114C29.6286 37.0087 28.9757 37.0087 28.5729 37.4114C28.1703 37.8142 28.1703 38.4671 28.5729 38.8699L30.1854 40.4824C30.9618 41.2587 30.9618 42.522 30.1854 43.2984C29.8094 43.6745 29.3093 43.8816 28.7774 43.8816C28.2454 43.8816 27.7455 43.6745 27.3693 43.2984L24.8647 40.7936L23.4062 42.2521L25.9109 44.7568C26.6765 45.5225 27.6945 45.9442 28.7773 45.9442C29.8601 45.9442 30.878 45.5225 31.6437 44.7568C32.2124 44.1881 32.5907 43.4801 32.7482 42.7099C33.2818 42.9617 33.8689 43.0945 34.4765 43.0945C35.5593 43.0945 36.5773 42.6729 37.3429 41.9072C37.853 41.397 38.2095 40.7745 38.3912 40.0958C39.1219 40.6681 40.0048 40.9554 40.8882 40.9554C41.9263 40.9554 42.9644 40.5602 43.7546 39.77C45.218 38.3065 45.3254 35.9937 44.0787 34.4044C44.7433 34.2266 45.3714 33.8787 45.8918 33.3584C46.6577 32.5926 47.0794 31.5745 47.0794 30.4917Z" fill="white"/>
<path d="M23.9132 6.15678C18.4514 0.69509 9.56456 0.695184 4.10278 6.15678C1.45706 8.8025 0 12.3203 0 16.0619C0 19.8037 1.45706 23.3214 4.10287 25.9671L4.80656 26.6708L6.26503 25.2123L5.56134 24.5086C3.30506 22.2525 2.0625 19.2527 2.0625 16.0619C2.0625 12.8712 3.30506 9.87143 5.56125 7.61515C10.2188 2.95756 17.7973 2.95756 22.4547 7.61515L22.9033 8.06375L24.3618 6.60528L23.9132 6.15678Z" fill="white"/>
<path d="M21.1214 36.2236C21.0452 36.2236 20.9694 36.2262 20.894 36.2304C20.8981 36.1549 20.9007 36.0791 20.9007 36.0029C20.9007 34.9201 20.479 33.9022 19.7134 33.1365C18.9477 32.3709 17.9298 31.9492 16.847 31.9492C16.7701 31.9492 16.6936 31.9519 16.6174 31.9561C16.6793 30.8436 16.287 29.7101 15.4389 28.8621C14.5909 28.014 13.4574 27.6217 12.3449 27.6837C12.3491 27.6075 12.3518 27.531 12.3518 27.4541C12.3518 26.3713 11.9302 25.3534 11.1645 24.5877C10.3988 23.8221 9.38091 23.4004 8.29809 23.4004C7.21538 23.4004 6.19734 23.8221 5.43169 24.5877L2.39438 27.625C1.62872 28.3907 1.20703 29.4086 1.20703 30.4915C1.20703 31.5743 1.62872 32.5922 2.39438 33.3579C2.90456 33.868 3.52706 34.2244 4.20572 34.4062C2.96091 35.9955 3.06872 38.3067 4.5315 39.7695C5.32181 40.5598 6.35981 40.9549 7.39791 40.9549C8.28225 40.9549 9.16594 40.6671 9.89709 40.0936C10.0748 40.7582 10.4228 41.3863 10.9432 41.9067C11.7088 42.6724 12.7267 43.0941 13.8096 43.0941C14.4172 43.0941 15.0043 42.9612 15.5379 42.7094C15.6953 43.4797 16.0737 44.1877 16.6423 44.7564C17.408 45.522 18.4259 45.9437 19.5087 45.9437C20.5915 45.9437 21.6095 45.522 22.3751 44.7564L23.9876 43.1439C24.7533 42.3782 25.175 41.3603 25.175 40.2775C25.175 39.1946 24.7533 38.1767 23.9876 37.411C23.2222 36.6453 22.2042 36.2236 21.1214 36.2236ZM3.26963 30.4914C3.26963 29.9595 3.47672 29.4595 3.85284 29.0833L6.89016 26.046C7.26619 25.6699 7.76625 25.4628 8.29809 25.4628C8.82994 25.4628 9.33 25.6699 9.70613 26.046C10.0823 26.4221 10.2893 26.9221 10.2893 27.454C10.2893 27.986 10.0823 28.486 9.70613 28.8621L6.66881 31.8994C6.29269 32.2755 5.79272 32.4826 5.26078 32.4826C4.72884 32.4826 4.22888 32.2755 3.85275 31.8994C3.47663 31.5233 3.26963 31.0233 3.26963 30.4914ZM5.99006 38.311C5.21363 37.5347 5.21363 36.2714 5.99006 35.4951L11.1646 30.3205C11.5528 29.9323 12.0627 29.7383 12.5726 29.7383C13.0825 29.7383 13.5924 29.9323 13.9807 30.3205C14.757 31.0969 14.757 32.3601 13.9807 33.1365L8.80613 38.311C8.02969 39.0874 6.7665 39.0874 5.99006 38.311ZM13.8098 41.0315C13.2779 41.0315 12.7778 40.8244 12.4017 40.4482C12.0256 40.072 11.8185 39.5721 11.8185 39.0401C11.8185 38.5083 12.0256 38.0082 12.4017 37.6322L15.439 34.5949C15.8151 34.2189 16.3152 34.0117 16.8471 34.0117C17.3789 34.0117 17.879 34.2188 18.2551 34.5949C18.6312 34.971 18.8383 35.471 18.8383 36.0029C18.8383 36.5349 18.6312 37.0348 18.2551 37.411L15.2177 40.4483C14.8416 40.8243 14.3416 41.0315 13.8098 41.0315ZM22.5294 41.6853L20.9169 43.2978C20.1406 44.0741 18.8773 44.0741 18.101 43.2978C17.3246 42.5215 17.3245 41.2584 18.1008 40.4821L19.7136 38.8693C20.1018 38.4811 20.6117 38.287 21.1216 38.287C21.6315 38.287 22.1414 38.4811 22.5296 38.8693C23.3058 39.6457 23.3058 40.909 22.5294 41.6853Z" fill="#94B9E3"/>
<path d="M43.8997 6.38022C41.2539 3.73441 37.7362 2.27734 33.9945 2.27734C33.9943 2.27734 33.9947 2.27734 33.9945 2.27734C30.2531 2.27734 26.735 3.73459 24.0894 6.38022L14.2435 16.2261C14.0501 16.4195 13.9414 16.6818 13.9414 16.9553C13.9414 17.2288 14.0501 17.4911 14.2435 17.6845L15.1012 18.5422C17.3873 20.8282 21.1068 20.8282 23.3928 18.5422L25.0991 16.836C27.0539 14.8811 30.2346 14.8811 32.1895 16.836L41.9925 26.6391C42.1859 26.8325 42.4482 26.9412 42.7217 26.9412C42.9952 26.9412 43.2575 26.8325 43.4509 26.6391L43.8995 26.1905C46.5455 23.5448 48.0026 20.0271 48.0026 16.2855C48.0026 12.5438 46.5455 9.02603 43.8997 6.38022ZM42.7174 24.4471L33.648 15.3777C32.3115 14.0412 30.5345 13.3052 28.6444 13.3052C26.7543 13.3052 24.9773 14.0413 23.6408 15.3777L21.9345 17.0839C20.4527 18.5658 18.0416 18.5658 16.5597 17.0839L16.4311 16.9554L25.5478 7.83869C27.804 5.5825 30.8038 4.33994 33.9945 4.33994C37.1853 4.33994 40.185 5.5825 42.4413 7.83878C44.6976 10.0951 45.9401 13.0947 45.9401 16.2855C45.9401 19.3436 44.7987 22.2263 42.7174 24.4471Z" fill="#94B9E3"/>
</g>
<defs>
<clipPath id="clip0_55_93558">
<rect width="48" height="48" fill="white"/>
</clipPath>
</defs>
</svg>
