<svg width="48" height="48" viewBox="0 0 48 48" fill="none" xmlns="http://www.w3.org/2000/svg">
<path d="M14.9023 10.4603V6.79423C14.9023 5.25645 16.149 4.00977 17.6868 4.00977H30.3103C31.848 4.00977 33.0947 5.25645 33.0947 6.79423V10.4603" stroke="#94B9E3" stroke-width="2.0625" stroke-miterlimit="10" stroke-linecap="square" stroke-linejoin="round"/>
<path d="M45.9172 22.4473V40.2544C45.9172 42.3171 44.2451 43.9891 42.1825 43.9891H5.82066C3.75797 43.9891 2.08594 42.317 2.08594 40.2544V22.4473" stroke="white" stroke-width="2.0625" stroke-miterlimit="10" stroke-linecap="round" stroke-linejoin="round"/>
<path d="M20.2178 28.899H12.2355C6.04753 28.899 1.03125 23.8827 1.03125 17.6947V13.3576C1.03125 12.3263 1.86731 11.4902 2.89866 11.4902H45.1014C46.1328 11.4902 46.9688 12.3263 46.9688 13.3576V17.6947C46.9688 23.8827 41.9526 28.899 35.7646 28.899H28.1236" stroke="white" stroke-width="2.0625" stroke-miterlimit="10" stroke-linecap="round" stroke-linejoin="round"/>
<path d="M24.0015 32.634C22.1605 32.634 20.668 31.1415 20.668 29.3005V27.2927C20.668 26.5604 21.2616 25.9668 21.9939 25.9668H26.0093C26.7416 25.9668 27.3352 26.5604 27.3352 27.2927V29.3005C27.3351 31.1415 25.8426 32.634 24.0015 32.634Z" stroke="white" stroke-width="2.0625" stroke-miterlimit="10" stroke-linecap="round" stroke-linejoin="round"/>
</svg>
