<svg width="64" height="64" viewBox="0 0 64 64" fill="none" xmlns="http://www.w3.org/2000/svg">
<path d="M52.3364 42.7539C47.6695 42.7539 43.873 46.5504 43.873 51.2166C43.873 55.8829 47.6695 59.6787 52.3364 59.6787C57.0026 59.6787 60.7991 55.8822 60.7991 51.216C60.7991 46.5497 57.0026 42.7539 52.3364 42.7539ZM52.3364 58.3987C48.3761 58.3987 45.153 55.1769 45.153 51.216C45.153 47.255 48.3754 44.0333 52.3364 44.0333C56.2974 44.0333 59.5191 47.2557 59.5191 51.216C59.5191 55.1763 56.2974 58.3987 52.3364 58.3987ZM55.9889 48.4691L53.2414 51.216L55.9889 53.9629C56.2391 54.2131 56.2391 54.6176 55.9889 54.8678C55.8641 54.9926 55.7002 55.0553 55.5364 55.0553C55.3726 55.0553 55.2087 54.9926 55.0839 54.8678L52.3364 52.1209L49.5889 54.8678C49.4641 54.9926 49.3002 55.0553 49.1364 55.0553C48.9726 55.0553 48.8087 54.9926 48.6839 54.8678C48.4337 54.6176 48.4337 54.2131 48.6839 53.9629L51.4314 51.216L48.6839 48.4691C48.4337 48.2189 48.4337 47.8144 48.6839 47.5641C48.9342 47.3139 49.3386 47.3139 49.5889 47.5641L52.3364 50.311L55.0839 47.5641C55.3342 47.3139 55.7386 47.3139 55.9889 47.5641C56.2391 47.8144 56.2391 48.2195 55.9889 48.4691Z" fill="#717171"/>
<path d="M55 39.5V4H23M10 16L23 4M10 16V59H43.5M10 16H23V4" stroke="#717171" stroke-width="1.3" stroke-linecap="round"/>
</svg>
