<svg width="64" height="64" viewBox="0 0 64 64" fill="none" xmlns="http://www.w3.org/2000/svg">
<path d="M52.3384 42.7539C47.6715 42.7539 43.875 46.5504 43.875 51.2166C43.875 55.8829 47.6715 59.6787 52.3384 59.6787C57.0046 59.6787 60.8011 55.8822 60.8011 51.216C60.8011 46.5497 57.0046 42.7539 52.3384 42.7539ZM52.3384 58.3987C48.378 58.3987 45.155 55.1769 45.155 51.216C45.155 47.255 48.3774 44.0333 52.3384 44.0333C56.2993 44.0333 59.5211 47.2557 59.5211 51.216C59.5211 55.1763 56.2993 58.3987 52.3384 58.3987ZM55.9908 48.4691L53.2433 51.216L55.9908 53.9629C56.2411 54.2131 56.2411 54.6176 55.9908 54.8678C55.866 54.9926 55.7022 55.0553 55.5384 55.0553C55.3745 55.0553 55.2107 54.9926 55.0859 54.8678L52.3384 52.1209L49.5908 54.8678C49.466 54.9926 49.3022 55.0553 49.1384 55.0553C48.9745 55.0553 48.8107 54.9926 48.6859 54.8678C48.4356 54.6176 48.4356 54.2131 48.6859 53.9629L51.4334 51.216L48.6859 48.4691C48.4356 48.2189 48.4356 47.8144 48.6859 47.5641C48.9361 47.3139 49.3406 47.3139 49.5908 47.5641L52.3384 50.311L55.0859 47.5641C55.3361 47.3139 55.7406 47.3139 55.9908 47.5641C56.2411 47.8144 56.2411 48.2195 55.9908 48.4691Z" fill="#717171"/>
<path d="M55 39.5V4H23M10 16L23 4M10 16V59H43.5M10 16H23V4" stroke="#717171" stroke-width="1.3" stroke-linecap="round"/>
</svg>




